# xmcd
#
# Track frame offsets: 
#        150
#        16972
#        37648
#        57413
#        70707
#        87506
#        108986
#        129555
#        145036
#        157463
#        173578
#        188523
#
# Disc length: 2727 seconds
#
# Revision: 0
# Processed by: cddbd v1.5.2PL0 Copyright (c) Steve Scherf et al.
# Submitted via: ExactAudioCopy v0.99pb5
#
DISCID=980aa50c
DTITLE=Cahalen Morrison and Eli West - Our Lady of The Tall Trees
DYEAR=2012
DGENRE=
TTITLE0=Stone to Sand
TTITLE1=A Lady Does Not Often Falter
TTITLE2=All I Can Do
TTITLE3=Loretta
TTITLE4=Our Lady of The Tall Trees
TTITLE5=The Poor Cowboy
TTITLE6=Poyluck Dinner - Vicco Returns From Spain
TTITLE7=Like a Stone
TTITLE8=Church Street Blues
TTITLE9=All For The Sake of Day
TTITLE10=Heartland sea
TTITLE11=Red Prairie Dawn
EXTD=
EXTT0=
EXTT1=
EXTT2=
EXTT3=
EXTT4=
EXTT5=
EXTT6=
EXTT7=
EXTT8=
EXTT9=
EXTT10=
EXTT11=
PLAYORDER=
